<?xml version="1.0" encoding="UTF-8" ?>
<!DOCTYPE svg PUBLIC "-//W3C//DTD SVG 1.1//EN" "http://www.w3.org/Graphics/SVG/1.1/DTD/svg11.dtd">
<svg width="25pt" height="25pt" viewBox="0 0 25 25" version="1.1" xmlns="http://www.w3.org/2000/svg">
<path fill="#f7f5f1" d=" M 0.00 0.00 L 25.00 0.00 L 25.00 25.00 L 15.77 25.00 C 17.75 23.62 19.54 21.99 21.22 20.26 C 22.32 19.39 23.65 18.69 24.25 17.35 C 20.13 17.67 16.00 18.03 11.86 18.12 L 11.09 17.72 C 9.86 17.05 8.62 16.28 7.20 16.09 C 5.51 15.77 3.84 15.34 2.13 15.13 C 0.83 16.26 1.78 17.21 2.85 18.03 C 3.01 19.56 3.14 21.24 4.79 21.87 C 6.53 23.10 8.43 24.07 10.34 25.00 L 0.00 25.00 L 0.00 0.00 Z" />
<path fill="#374be0" d=" M 8.09 6.17 C 7.66 3.39 14.15 4.78 14.70 4.27 C 19.22 5.84 20.97 10.10 23.01 14.00 C 22.29 17.74 17.52 15.44 14.86 15.02 C 14.05 13.64 14.83 12.78 16.08 12.14 C 17.83 11.39 18.26 9.76 18.04 7.99 C 15.32 7.38 13.17 8.70 11.80 10.97 C 9.33 11.40 11.05 8.81 10.90 7.47 C 9.99 7.36 9.08 7.28 8.16 7.17 L 8.09 6.17 Z" />
<path fill="#cdc5aa" d=" M 4.04 9.22 C 3.16 6.70 6.27 6.11 8.09 6.17 L 8.16 7.17 C 7.03 8.41 5.94 10.36 4.04 9.22 Z" />
<path fill="#7276e9" d=" M 8.16 7.17 C 9.08 7.28 9.99 7.36 10.90 7.47 C 11.05 8.81 9.33 11.40 11.80 10.97 C 13.24 11.31 14.65 11.76 16.08 12.14 C 14.83 12.78 14.05 13.64 14.86 15.02 C 12.38 14.40 10.18 12.98 7.66 12.47 C 2.35 15.61 2.16 10.83 4.04 9.22 C 5.94 10.36 7.03 8.41 8.16 7.17 Z" />
<path fill="#c9c3c3" d=" M 11.80 10.97 C 13.17 8.70 15.32 7.38 18.04 7.99 C 18.26 9.76 17.83 11.39 16.08 12.14 C 14.65 11.76 13.24 11.31 11.80 10.97 Z" />
<path fill="#594f40" d=" M 2.13 15.13 C 3.84 15.34 5.51 15.77 7.20 16.09 C 6.60 17.49 6.20 19.06 5.14 20.19 C 4.36 19.49 3.60 18.77 2.85 18.03 C 1.78 17.21 0.83 16.26 2.13 15.13 Z" />
<path fill="#decd99" d=" M 7.20 16.09 C 8.62 16.28 9.86 17.05 11.09 17.72 C 7.52 17.30 10.27 20.05 11.12 21.56 C 10.18 21.62 7.94 23.87 8.06 21.96 C 8.51 18.76 6.18 21.10 4.79 21.87 C 3.14 21.24 3.01 19.56 2.85 18.03 C 3.60 18.77 4.36 19.49 5.14 20.19 C 6.20 19.06 6.60 17.49 7.20 16.09 Z" />
<path fill="#b7b0aa" d=" M 11.86 18.12 C 16.00 18.03 20.13 17.67 24.25 17.35 C 23.65 18.69 22.32 19.39 21.22 20.26 C 18.92 19.75 16.58 19.36 14.21 19.33 C 13.63 19.02 12.45 18.42 11.86 18.12 Z" />
<path fill="#1f170f" d=" M 11.12 21.56 C 10.27 20.05 7.52 17.30 11.09 17.72 L 11.86 18.12 C 12.45 18.42 13.63 19.02 14.21 19.33 C 13.78 20.74 12.33 21.05 11.12 21.56 Z" />
<path fill="#b69f6e" d=" M 14.21 19.33 C 16.58 19.36 18.92 19.75 21.22 20.26 C 19.54 21.99 17.75 23.62 15.77 25.00 L 10.34 25.00 C 8.43 24.07 6.53 23.10 4.79 21.87 C 6.18 21.10 8.51 18.76 8.06 21.96 C 7.94 23.87 10.18 21.62 11.12 21.56 C 12.33 21.05 13.78 20.74 14.21 19.33 Z" />
</svg>
