<?xml version="1.0" encoding="UTF-8" ?>
<!DOCTYPE svg PUBLIC "-//W3C//DTD SVG 1.1//EN" "http://www.w3.org/Graphics/SVG/1.1/DTD/svg11.dtd">
<svg width="25pt" height="21pt" viewBox="0 0 25 21" version="1.1" xmlns="http://www.w3.org/2000/svg">
<path fill="#f9f9f3" d=" M 0.00 0.00 L 10.28 0.00 L 10.06 0.62 C 9.79 0.81 9.26 1.19 8.99 1.38 C 6.58 2.42 -0.06 8.78 5.81 7.98 C 7.14 8.26 8.45 8.59 9.78 8.90 C 10.15 9.19 10.91 9.77 11.29 10.06 C 9.82 10.65 8.33 11.20 6.85 11.77 L 6.04 11.71 C -0.15 9.14 -0.06 12.38 3.63 14.43 C 3.98 14.70 4.69 15.24 5.04 15.51 C 6.26 22.27 18.01 21.60 21.06 16.05 C 22.35 14.93 23.68 13.85 25.00 12.76 L 25.00 21.00 L 0.00 21.00 L 0.00 0.00 Z" />
<path fill="#75e583" d=" M 10.28 0.00 L 14.82 0.00 L 15.09 0.59 C 13.53 1.43 11.63 1.46 10.06 0.62 L 10.28 0.00 Z" />
<path fill="#f6fbf6" d=" M 14.82 0.00 L 25.00 0.00 L 25.00 11.26 C 24.47 10.48 23.93 9.71 23.38 8.95 C 21.53 6.40 19.65 3.77 17.13 1.83 C 16.62 1.52 15.60 0.90 15.09 0.59 L 14.82 0.00 Z" />
<path fill="#11a016" d=" M 8.99 1.38 C 9.26 1.19 9.79 0.81 10.06 0.62 C 11.63 1.46 13.53 1.43 15.09 0.59 C 15.60 0.90 16.62 1.52 17.13 1.83 C 14.05 1.69 10.27 0.92 10.71 4.83 C 14.61 0.22 19.14 5.48 18.04 10.08 C 15.24 9.96 12.61 8.58 9.78 8.90 C 8.45 8.59 7.14 8.26 5.81 7.98 C 9.11 7.12 11.41 4.65 8.99 1.38 Z" />
<path fill="#26d63d" d=" M 5.81 7.98 C -0.06 8.78 6.58 2.42 8.99 1.38 C 11.41 4.65 9.11 7.12 5.81 7.98 Z" />
<path fill="#116211" d=" M 10.71 4.83 C 10.27 0.92 14.05 1.69 17.13 1.83 C 19.65 3.77 21.53 6.40 23.38 8.95 C 22.08 14.72 15.09 11.51 11.29 10.06 C 10.91 9.77 10.15 9.19 9.78 8.90 C 12.61 8.58 15.24 9.96 18.04 10.08 C 19.14 5.48 14.61 0.22 10.71 4.83 Z" />
<path fill="#9f9995" d=" M 23.38 8.95 C 23.93 9.71 24.47 10.48 25.00 11.26 L 25.00 12.76 C 23.68 13.85 22.35 14.93 21.06 16.05 C 18.79 16.30 16.52 16.52 14.24 16.71 C 13.24 14.76 11.09 14.25 9.15 13.69 C 8.72 13.44 7.84 12.92 7.40 12.67 L 6.85 11.77 C 8.33 11.20 9.82 10.65 11.29 10.06 C 15.09 11.51 22.08 14.72 23.38 8.95 Z" />
<path fill="#a09781" d=" M 3.63 14.43 C -0.06 12.38 -0.15 9.14 6.04 11.71 C 3.86 11.51 2.59 12.19 3.63 14.43 Z" />
<path fill="#262217" d=" M 3.63 14.43 C 2.59 12.19 3.86 11.51 6.04 11.71 L 6.85 11.77 L 7.40 12.67 C 6.76 13.74 5.98 14.68 5.04 15.51 C 4.69 15.24 3.98 14.70 3.63 14.43 Z" />
<path fill="#d3bd77" d=" M 7.40 12.67 C 7.84 12.92 8.72 13.44 9.15 13.69 C 9.40 16.74 11.48 17.49 14.24 16.71 C 16.52 16.52 18.79 16.30 21.06 16.05 C 18.01 21.60 6.26 22.27 5.04 15.51 C 5.98 14.68 6.76 13.74 7.40 12.67 Z" />
<path fill="#1d1a12" d=" M 9.15 13.69 C 11.09 14.25 13.24 14.76 14.24 16.71 C 11.48 17.49 9.40 16.74 9.15 13.69 Z" />
</svg>
